<svg xmlns="http://www.w3.org/2000/svg" viewBox="0 0 32 32" width="32" height="32">
  <defs>
    <linearGradient id="g" x1="0.2" y1="0" x2="0.8" y2="1">
      <stop offset="0%" stop-color="#9B8FF8"/>
      <stop offset="48%" stop-color="#5C6CF5"/>
      <stop offset="100%" stop-color="#3850ED"/>
    </linearGradient>
    <radialGradient id="s" cx="32%" cy="22%" r="55%">
      <stop offset="0%" stop-color="#fff" stop-opacity=".38"/>
      <stop offset="100%" stop-color="#fff" stop-opacity="0"/>
    </radialGradient>
  </defs>
  <!-- 8-bump cloud/flower shape -->
  <path d="M16,2 C18,2 18.6,4.3 20.5,5.1 C22.3,5.9 24.5,4.7 25.9,6.1 C27.3,7.5 26.1,9.7 26.9,11.5 C27.7,13.3 30,14 30,16 C30,18 27.7,18.7 26.9,20.5 C26.1,22.3 27.3,24.5 25.9,25.9 C24.5,27.3 22.3,26.1 20.5,26.9 C18.6,27.7 18,30 16,30 C14,30 13.3,27.7 11.5,26.9 C9.7,26.1 7.5,27.3 6.1,25.9 C4.7,24.5 5.9,22.3 5.1,20.5 C4.3,18.6 2,18 2,16 C2,14 4.3,13.4 5.1,11.5 C5.9,9.7 4.7,7.5 6.1,6.1 C7.5,4.7 9.7,5.9 11.5,5.1 C13.3,4.3 14,2 16,2 Z" fill="url(#g)"/>
  <path d="M16,2 C18,2 18.6,4.3 20.5,5.1 C22.3,5.9 24.5,4.7 25.9,6.1 C27.3,7.5 26.1,9.7 26.9,11.5 C27.7,13.3 30,14 30,16 C30,18 27.7,18.7 26.9,20.5 C26.1,22.3 27.3,24.5 25.9,25.9 C24.5,27.3 22.3,26.1 20.5,26.9 C18.6,27.7 18,30 16,30 C14,30 13.3,27.7 11.5,26.9 C9.7,26.1 7.5,27.3 6.1,25.9 C4.7,24.5 5.9,22.3 5.1,20.5 C4.3,18.6 2,18 2,16 C2,14 4.3,13.4 5.1,11.5 C5.9,9.7 4.7,7.5 6.1,6.1 C7.5,4.7 9.7,5.9 11.5,5.1 C13.3,4.3 14,2 16,2 Z" fill="url(#s)"/>
  <!-- Chevron > -->
  <polyline points="9.5,13 13,16 9.5,19" fill="none" stroke="#fff" stroke-width="2" stroke-linecap="round" stroke-linejoin="round"/>
  <!-- Dash - -->
  <line x1="14.5" y1="19" x2="21" y2="19" stroke="#fff" stroke-width="2" stroke-linecap="round"/>
</svg>
