<svg width="800" height="800" viewBox="0 0 800 800" xmlns="http://www.w3.org/2000/svg">
  <defs>
    <radialGradient id="glow-neurips" cx="50%" cy="50%" r="46%">
      <stop offset="0%" stop-color="#062020" stop-opacity="0.8"/>
      <stop offset="100%" stop-color="#0d1117" stop-opacity="0"/>
    </radialGradient>
  </defs>
  <rect width="800" height="800" fill="#0d1117"/>
  <rect width="800" height="800" fill="url(#glow-neurips)"/>

  <!-- Title -->
  <text x="400" y="64" font-family="ui-monospace, monospace" font-size="13" font-weight="700" fill="#14b8a6" text-anchor="middle" letter-spacing="4">NeurIPS 2023</text>
  <text x="400" y="86" font-family="ui-monospace, monospace" font-size="10" fill="#4b5563" text-anchor="middle" letter-spacing="3">NEW ORLEANS  ·  3,500+ PAPERS</text>

  <!-- Dense constellation of nodes — many sizes, many connections -->
  <!-- Large central cluster -->
  <g fill="none" stroke="#0d9488" stroke-width="0.6" opacity="0.3">
    <!-- connections radiating from center cluster -->
    <line x1="400" y1="380" x2="320" y2="280"/>
    <line x1="400" y1="380" x2="480" y2="290"/>
    <line x1="400" y1="380" x2="540" y2="380"/>
    <line x1="400" y1="380" x2="490" y2="470"/>
    <line x1="400" y1="380" x2="310" y2="470"/>
    <line x1="400" y1="380" x2="260" y2="380"/>
    <line x1="400" y1="380" x2="280" y2="260"/>
    <line x1="400" y1="380" x2="460" y2="240"/>
    <line x1="400" y1="380" x2="570" y2="310"/>
    <line x1="400" y1="380" x2="600" y2="430"/>
    <line x1="400" y1="380" x2="540" y2="510"/>
    <line x1="400" y1="380" x2="430" y2="540"/>
    <line x1="400" y1="380" x2="350" y2="540"/>
    <line x1="400" y1="380" x2="260" y2="500"/>
    <line x1="400" y1="380" x2="200" y2="420"/>
    <line x1="400" y1="380" x2="200" y2="330"/>
    <line x1="400" y1="380" x2="240" y2="220"/>
    <line x1="400" y1="380" x2="360" y2="200"/>
    <line x1="400" y1="380" x2="440" y2="200"/>
    <line x1="400" y1="380" x2="520" y2="220"/>
    <!-- secondary connections between peripheral nodes -->
    <line x1="320" y1="280" x2="480" y2="290"/>
    <line x1="480" y1="290" x2="540" y2="380"/>
    <line x1="540" y1="380" x2="490" y2="470"/>
    <line x1="490" y1="470" x2="310" y2="470"/>
    <line x1="310" y1="470" x2="260" y2="380"/>
    <line x1="260" y1="380" x2="320" y2="280"/>
    <!-- outer ring connections -->
    <line x1="280" y1="260" x2="360" y2="200"/>
    <line x1="360" y1="200" x2="440" y2="200"/>
    <line x1="440" y1="200" x2="520" y2="220"/>
    <line x1="520" y1="220" x2="570" y2="310"/>
    <line x1="570" y1="310" x2="600" y2="430"/>
    <line x1="600" y1="430" x2="540" y2="510"/>
    <line x1="540" y1="510" x2="430" y2="540"/>
    <line x1="430" y1="540" x2="350" y2="540"/>
    <line x1="350" y1="540" x2="260" y2="500"/>
    <line x1="260" y1="500" x2="200" y2="420"/>
    <line x1="200" y1="420" x2="200" y2="330"/>
    <line x1="200" y1="330" x2="240" y2="220"/>
    <line x1="240" y1="220" x2="280" y2="260"/>
    <!-- extra cross-connections for density -->
    <line x1="280" y1="260" x2="460" y2="240"/>
    <line x1="460" y1="240" x2="570" y2="310"/>
    <line x1="600" y1="430" x2="490" y2="470"/>
    <line x1="260" y1="500" x2="310" y2="470"/>
    <line x1="200" y1="330" x2="320" y2="280"/>
    <!-- deeper connections -->
    <line x1="320" y1="280" x2="360" y2="200"/>
    <line x1="480" y1="290" x2="520" y2="220"/>
    <line x1="540" y1="380" x2="600" y2="430"/>
    <line x1="310" y1="470" x2="350" y2="540"/>
    <line x1="260" y1="380" x2="200" y2="420"/>
    <line x1="280" y1="260" x2="240" y2="220"/>
    <!-- even more for constellation density -->
    <line x1="400" y1="380" x2="160" y2="280"/>
    <line x1="400" y1="380" x2="640" y2="270"/>
    <line x1="400" y1="380" x2="660" y2="480"/>
    <line x1="400" y1="380" x2="150" y2="480"/>
    <line x1="400" y1="380" x2="400" y2="160"/>
    <line x1="400" y1="380" x2="400" y2="600"/>
    <line x1="160" y1="280" x2="240" y2="220"/>
    <line x1="640" y1="270" x2="570" y2="310"/>
    <line x1="660" y1="480" x2="600" y2="430"/>
    <line x1="150" y1="480" x2="200" y2="420"/>
  </g>

  <!-- Bright nodes at various positions -->
  <!-- Center -->
  <circle cx="400" cy="380" r="12" fill="#0d9488" opacity="0.9"/>
  <!-- Ring 1 -->
  <circle cx="320" cy="280" r="7" fill="#14b8a6" opacity="0.8"/>
  <circle cx="480" cy="290" r="7" fill="#14b8a6" opacity="0.8"/>
  <circle cx="540" cy="380" r="7" fill="#14b8a6" opacity="0.8"/>
  <circle cx="490" cy="470" r="7" fill="#14b8a6" opacity="0.8"/>
  <circle cx="310" cy="470" r="7" fill="#14b8a6" opacity="0.8"/>
  <circle cx="260" cy="380" r="7" fill="#14b8a6" opacity="0.8"/>
  <!-- Ring 2 -->
  <circle cx="280" cy="260" r="5" fill="#2dd4bf" opacity="0.7"/>
  <circle cx="360" cy="200" r="5" fill="#2dd4bf" opacity="0.7"/>
  <circle cx="440" cy="200" r="5" fill="#2dd4bf" opacity="0.7"/>
  <circle cx="520" cy="220" r="5" fill="#2dd4bf" opacity="0.7"/>
  <circle cx="570" cy="310" r="5" fill="#2dd4bf" opacity="0.7"/>
  <circle cx="600" cy="430" r="5" fill="#2dd4bf" opacity="0.7"/>
  <circle cx="540" cy="510" r="5" fill="#2dd4bf" opacity="0.7"/>
  <circle cx="430" cy="540" r="5" fill="#2dd4bf" opacity="0.7"/>
  <circle cx="350" cy="540" r="5" fill="#2dd4bf" opacity="0.7"/>
  <circle cx="260" cy="500" r="5" fill="#2dd4bf" opacity="0.7"/>
  <circle cx="200" cy="420" r="5" fill="#2dd4bf" opacity="0.7"/>
  <circle cx="200" cy="330" r="5" fill="#2dd4bf" opacity="0.7"/>
  <circle cx="240" cy="220" r="5" fill="#2dd4bf" opacity="0.7"/>
  <!-- Ring 3 (dim outer) -->
  <circle cx="160" cy="280" r="4" fill="#0d9488" opacity="0.5"/>
  <circle cx="640" cy="270" r="4" fill="#0d9488" opacity="0.5"/>
  <circle cx="660" cy="480" r="4" fill="#0d9488" opacity="0.5"/>
  <circle cx="150" cy="480" r="4" fill="#0d9488" opacity="0.5"/>
  <circle cx="400" cy="160" r="4" fill="#0d9488" opacity="0.5"/>
  <circle cx="400" cy="600" r="4" fill="#0d9488" opacity="0.5"/>
  <circle cx="460" cy="240" r="4" fill="#0d9488" opacity="0.5"/>

  <!-- Scattered small dots for density -->
  <g fill="#0d9488" opacity="0.35">
    <circle cx="338" cy="340" r="2.5"/>
    <circle cx="462" cy="340" r="2.5"/>
    <circle cx="400" cy="430" r="2.5"/>
    <circle cx="340" cy="430" r="2.5"/>
    <circle cx="460" cy="420" r="2.5"/>
    <circle cx="370" cy="310" r="2.5"/>
    <circle cx="430" cy="310" r="2.5"/>
    <circle cx="560" cy="450" r="2"/>
    <circle cx="240" cy="350" r="2"/>
    <circle cx="350" cy="170" r="2"/>
    <circle cx="450" cy="170" r="2"/>
    <circle cx="620" cy="370" r="2"/>
    <circle cx="180" cy="360" r="2"/>
    <circle cx="520" cy="500" r="2"/>
    <circle cx="290" cy="500" r="2"/>
  </g>

  <!-- Stats strip -->
  <line x1="60" y1="632" x2="740" y2="632" stroke="#0d9488" stroke-width="0.75" opacity="0.4"/>

  <rect x="80" y="648" width="180" height="76" rx="6" fill="#020f0e" stroke="#14b8a6" stroke-width="1.5"/>
  <text x="170" y="672" font-family="ui-monospace, monospace" font-size="9" fill="#4b5563" text-anchor="middle" letter-spacing="2">PAPERS</text>
  <text x="170" y="702" font-family="ui-monospace, monospace" font-size="30" font-weight="700" fill="#14b8a6" text-anchor="middle">3.5k+</text>
  <text x="170" y="718" font-family="ui-monospace, monospace" font-size="8" fill="#4b5563" text-anchor="middle">submitted</text>

  <rect x="310" y="648" width="180" height="76" rx="6" fill="#020f0e" stroke="#14b8a6" stroke-width="1.5"/>
  <text x="400" y="672" font-family="ui-monospace, monospace" font-size="9" fill="#4b5563" text-anchor="middle" letter-spacing="2">ATTENDEES</text>
  <text x="400" y="702" font-family="ui-monospace, monospace" font-size="30" font-weight="700" fill="#14b8a6" text-anchor="middle">15k</text>
  <text x="400" y="718" font-family="ui-monospace, monospace" font-size="8" fill="#4b5563" text-anchor="middle">New Orleans</text>

  <rect x="540" y="648" width="180" height="76" rx="6" fill="#020f0e" stroke="#14b8a6" stroke-width="1.5"/>
  <text x="630" y="672" font-family="ui-monospace, monospace" font-size="9" fill="#4b5563" text-anchor="middle" letter-spacing="2">ACCEPTANCE</text>
  <text x="630" y="702" font-family="ui-monospace, monospace" font-size="30" font-weight="700" fill="#14b8a6" text-anchor="middle">26%</text>
  <text x="630" y="718" font-family="ui-monospace, monospace" font-size="8" fill="#4b5563" text-anchor="middle">acceptance rate</text>

  <text x="400" y="758" font-family="ui-monospace, monospace" font-size="11" fill="#94a3b8" text-anchor="middle" letter-spacing="2">neural network constellation</text>
  <text x="400" y="778" font-family="ui-monospace, monospace" font-size="9" fill="#4b5563" text-anchor="middle">academia rising · foundation models · RL</text>
</svg>
