<svg width="800" height="800" viewBox="0 0 800 800" xmlns="http://www.w3.org/2000/svg">
  <defs>
    <radialGradient id="glow-iclr" cx="50%" cy="50%" r="45%">
      <stop offset="0%" stop-color="#052e16" stop-opacity="0.7"/>
      <stop offset="100%" stop-color="#0d1117" stop-opacity="0"/>
    </radialGradient>
  </defs>
  <rect width="800" height="800" fill="#0d1117"/>
  <rect width="800" height="800" fill="url(#glow-iclr)"/>

  <!-- Title -->
  <text x="400" y="66" font-family="ui-monospace, monospace" font-size="13" font-weight="700" fill="#10b981" text-anchor="middle" letter-spacing="4">TRANSFER LEARNING</text>
  <text x="400" y="88" font-family="ui-monospace, monospace" font-size="10" fill="#4b5563" text-anchor="middle" letter-spacing="3">ICLR 2023</text>

  <!-- Source network (left) -->
  <text x="178" y="148" font-family="ui-monospace, monospace" font-size="10" fill="#4b5563" text-anchor="middle" letter-spacing="2">SOURCE</text>

  <!-- Source net nodes - 4 layers: 4-5-5-3 -->
  <!-- Layer 1 (input) -->
  <g fill="#061a12" stroke="#10b981" stroke-width="1.5">
    <circle cx="80" cy="240" r="14"/>
    <circle cx="80" cy="280" r="14"/>
    <circle cx="80" cy="320" r="14"/>
    <circle cx="80" cy="360" r="14"/>
  </g>
  <!-- Layer 2 -->
  <g fill="#061a12" stroke="#10b981" stroke-width="1.5">
    <circle cx="156" cy="220" r="14"/>
    <circle cx="156" cy="260" r="14"/>
    <circle cx="156" cy="300" r="14"/>
    <circle cx="156" cy="340" r="14"/>
    <circle cx="156" cy="380" r="14"/>
  </g>
  <!-- Layer 3 -->
  <g fill="#061a12" stroke="#10b981" stroke-width="1.5">
    <circle cx="232" cy="240" r="14"/>
    <circle cx="232" cy="280" r="14"/>
    <circle cx="232" cy="320" r="14"/>
    <circle cx="232" cy="360" r="14"/>
  </g>
  <!-- Layer 4 (output) -->
  <g fill="#10b981" opacity="0.7">
    <circle cx="308" cy="270" r="14"/>
    <circle cx="308" cy="310" r="14"/>
    <circle cx="308" cy="350" r="14"/>
  </g>

  <!-- Source net connections (simplified) -->
  <g stroke="#10b981" stroke-width="0.75" opacity="0.25" fill="none">
    <line x1="94" y1="240" x2="142" y2="220"/>
    <line x1="94" y1="240" x2="142" y2="260"/>
    <line x1="94" y1="240" x2="142" y2="300"/>
    <line x1="94" y1="280" x2="142" y2="220"/>
    <line x1="94" y1="280" x2="142" y2="260"/>
    <line x1="94" y1="280" x2="142" y2="300"/>
    <line x1="94" y1="280" x2="142" y2="340"/>
    <line x1="94" y1="320" x2="142" y2="260"/>
    <line x1="94" y1="320" x2="142" y2="300"/>
    <line x1="94" y1="320" x2="142" y2="340"/>
    <line x1="94" y1="320" x2="142" y2="380"/>
    <line x1="94" y1="360" x2="142" y2="300"/>
    <line x1="94" y1="360" x2="142" y2="340"/>
    <line x1="94" y1="360" x2="142" y2="380"/>
    <line x1="170" y1="220" x2="218" y2="240"/>
    <line x1="170" y1="220" x2="218" y2="280"/>
    <line x1="170" y1="260" x2="218" y2="240"/>
    <line x1="170" y1="260" x2="218" y2="280"/>
    <line x1="170" y1="260" x2="218" y2="320"/>
    <line x1="170" y1="300" x2="218" y2="280"/>
    <line x1="170" y1="300" x2="218" y2="320"/>
    <line x1="170" y1="300" x2="218" y2="360"/>
    <line x1="170" y1="340" x2="218" y2="320"/>
    <line x1="170" y1="340" x2="218" y2="360"/>
    <line x1="170" y1="380" x2="218" y2="360"/>
    <line x1="246" y1="240" x2="294" y2="270"/>
    <line x1="246" y1="280" x2="294" y2="270"/>
    <line x1="246" y1="280" x2="294" y2="310"/>
    <line x1="246" y1="320" x2="294" y2="310"/>
    <line x1="246" y1="320" x2="294" y2="350"/>
    <line x1="246" y1="360" x2="294" y2="350"/>
  </g>

  <!-- Transfer arrow (center) -->
  <text x="400" y="295" font-family="ui-monospace, monospace" font-size="10" fill="#10b981" text-anchor="middle" letter-spacing="2">FINE-TUNE</text>
  <text x="400" y="316" font-family="ui-monospace, monospace" font-size="10" fill="#4b5563" text-anchor="middle">frozen layers</text>

  <defs>
    <marker id="arr-iclr" markerWidth="10" markerHeight="7" refX="9" refY="3.5" orient="auto">
      <polygon points="0 0, 0 7, 9 3.5" fill="#10b981"/>
    </marker>
  </defs>
  <!-- Big transfer arrow -->
  <line x1="338" y1="310" x2="448" y2="310" stroke="#10b981" stroke-width="2.5" marker-end="url(#arr-iclr)"/>

  <!-- Knowledge transfer arcs (above the arrow) -->
  <g fill="none" stroke="#10b981" stroke-width="1" opacity="0.4" stroke-dasharray="5 4">
    <path d="M308 270 Q400 200 492 260"/>
    <path d="M308 310 Q400 240 492 300"/>
    <path d="M308 350 Q400 280 492 340"/>
  </g>

  <!-- Target network (right) -->
  <text x="622" y="148" font-family="ui-monospace, monospace" font-size="10" fill="#4b5563" text-anchor="middle" letter-spacing="2">TARGET</text>

  <!-- Target net: same arch but new output head -->
  <!-- Layer 1 -->
  <g fill="#061a12" stroke="#10b981" stroke-width="1.5">
    <circle cx="492" cy="240" r="14"/>
    <circle cx="492" cy="280" r="14"/>
    <circle cx="492" cy="320" r="14"/>
    <circle cx="492" cy="360" r="14"/>
  </g>
  <!-- Layer 2 -->
  <g fill="#061a12" stroke="#10b981" stroke-width="1.5">
    <circle cx="568" cy="220" r="14"/>
    <circle cx="568" cy="260" r="14"/>
    <circle cx="568" cy="300" r="14"/>
    <circle cx="568" cy="340" r="14"/>
    <circle cx="568" cy="380" r="14"/>
  </g>
  <!-- Layer 3 (frozen, brighter) -->
  <g fill="#061a12" stroke="#34d399" stroke-width="2">
    <circle cx="644" cy="240" r="14"/>
    <circle cx="644" cy="280" r="14"/>
    <circle cx="644" cy="320" r="14"/>
    <circle cx="644" cy="360" r="14"/>
  </g>
  <!-- Layer 4 - new head, highlighted -->
  <g fill="#10b981">
    <circle cx="720" cy="260" r="14"/>
    <circle cx="720" cy="310" r="14"/>
    <circle cx="720" cy="360" r="14"/>
    <circle cx="720" cy="410" r="14"/>
  </g>

  <!-- Target net connections -->
  <g stroke="#10b981" stroke-width="0.75" opacity="0.25" fill="none">
    <line x1="506" y1="240" x2="554" y2="220"/>
    <line x1="506" y1="240" x2="554" y2="260"/>
    <line x1="506" y1="280" x2="554" y2="220"/>
    <line x1="506" y1="280" x2="554" y2="260"/>
    <line x1="506" y1="280" x2="554" y2="300"/>
    <line x1="506" y1="320" x2="554" y2="260"/>
    <line x1="506" y1="320" x2="554" y2="300"/>
    <line x1="506" y1="320" x2="554" y2="340"/>
    <line x1="506" y1="360" x2="554" y2="300"/>
    <line x1="506" y1="360" x2="554" y2="340"/>
    <line x1="506" y1="360" x2="554" y2="380"/>
    <line x1="582" y1="220" x2="630" y2="240"/>
    <line x1="582" y1="260" x2="630" y2="240"/>
    <line x1="582" y1="260" x2="630" y2="280"/>
    <line x1="582" y1="300" x2="630" y2="280"/>
    <line x1="582" y1="300" x2="630" y2="320"/>
    <line x1="582" y1="340" x2="630" y2="320"/>
    <line x1="582" y1="340" x2="630" y2="360"/>
    <line x1="582" y1="380" x2="630" y2="360"/>
    <line x1="658" y1="240" x2="706" y2="260"/>
    <line x1="658" y1="280" x2="706" y2="260"/>
    <line x1="658" y1="280" x2="706" y2="310"/>
    <line x1="658" y1="320" x2="706" y2="310"/>
    <line x1="658" y1="320" x2="706" y2="360"/>
    <line x1="658" y1="360" x2="706" y2="360"/>
    <line x1="658" y1="360" x2="706" y2="410"/>
  </g>

  <!-- Frozen layer indicator -->
  <text x="644" y="402" font-family="ui-monospace, monospace" font-size="8" fill="#34d399" text-anchor="middle">frozen</text>
  <text x="720" y="438" font-family="ui-monospace, monospace" font-size="8" fill="#10b981" text-anchor="middle">new head</text>

  <!-- Task labels -->
  <text x="178" y="468" font-family="ui-monospace, monospace" font-size="10" fill="#4b5563" text-anchor="middle">ImageNet</text>
  <text x="622" y="468" font-family="ui-monospace, monospace" font-size="10" fill="#4b5563" text-anchor="middle">downstream task</text>

  <!-- Stats row -->
  <line x1="60" y1="500" x2="740" y2="500" stroke="#10b981" stroke-width="0.75" opacity="0.3"/>

  <rect x="80" y="520" width="180" height="76" rx="6" fill="#071410" stroke="#10b981" stroke-width="1.5"/>
  <text x="170" y="546" font-family="ui-monospace, monospace" font-size="9" fill="#4b5563" text-anchor="middle" letter-spacing="2">PAPERS</text>
  <text x="170" y="574" font-family="ui-monospace, monospace" font-size="26" font-weight="700" fill="#10b981" text-anchor="middle">187</text>
  <text x="170" y="590" font-family="ui-monospace, monospace" font-size="9" fill="#4b5563" text-anchor="middle">transfer learning</text>

  <rect x="310" y="520" width="180" height="76" rx="6" fill="#071410" stroke="#10b981" stroke-width="1.5"/>
  <text x="400" y="546" font-family="ui-monospace, monospace" font-size="9" fill="#4b5563" text-anchor="middle" letter-spacing="2">ACCURACY GAIN</text>
  <text x="400" y="574" font-family="ui-monospace, monospace" font-size="26" font-weight="700" fill="#34d399" text-anchor="middle">+8.4%</text>
  <text x="400" y="590" font-family="ui-monospace, monospace" font-size="9" fill="#4b5563" text-anchor="middle">avg over benchmarks</text>

  <rect x="540" y="520" width="180" height="76" rx="6" fill="#071410" stroke="#10b981" stroke-width="1.5"/>
  <text x="630" y="546" font-family="ui-monospace, monospace" font-size="9" fill="#4b5563" text-anchor="middle" letter-spacing="2">ICLR 2023</text>
  <text x="630" y="574" font-family="ui-monospace, monospace" font-size="26" font-weight="700" fill="#10b981" text-anchor="middle">3.8k</text>
  <text x="630" y="590" font-family="ui-monospace, monospace" font-size="9" fill="#4b5563" text-anchor="middle">total submissions</text>

  <!-- technique labels -->
  <text x="400" y="640" font-family="ui-monospace, monospace" font-size="10" fill="#4b5563" text-anchor="middle" letter-spacing="2">METHODS</text>
  <g font-family="ui-monospace, monospace" font-size="10" text-anchor="middle">
    <rect x="80" y="656" width="136" height="28" rx="4" fill="#071410" stroke="#10b981" stroke-width="1"/>
    <text x="148" y="675" fill="#94a3b8">fine-tuning</text>
    <rect x="232" y="656" width="120" height="28" rx="4" fill="#071410" stroke="#10b981" stroke-width="1"/>
    <text x="292" y="675" fill="#94a3b8">adapter</text>
    <rect x="368" y="656" width="100" height="28" rx="4" fill="#071410" stroke="#10b981" stroke-width="1"/>
    <text x="418" y="675" fill="#94a3b8">LoRA</text>
    <rect x="484" y="656" width="120" height="28" rx="4" fill="#071410" stroke="#10b981" stroke-width="1"/>
    <text x="544" y="675" fill="#94a3b8">prompt tuning</text>
    <rect x="620" y="656" width="100" height="28" rx="4" fill="#071410" stroke="#10b981" stroke-width="1"/>
    <text x="670" y="675" fill="#94a3b8">zero-shot</text>
  </g>

  <text x="400" y="730" font-family="ui-monospace, monospace" font-size="11" fill="#94a3b8" text-anchor="middle" letter-spacing="2">knowledge transfer across domains</text>
  <text x="400" y="752" font-family="ui-monospace, monospace" font-size="9" fill="#4b5563" text-anchor="middle">pre-train · adapt · evaluate</text>
</svg>
