<svg width="800" height="800" viewBox="0 0 800 800" xmlns="http://www.w3.org/2000/svg">
  <defs>
    <radialGradient id="glow-phil" cx="50%" cy="50%" r="46%">
      <stop offset="0%" stop-color="#1e0a4a" stop-opacity="0.7"/>
      <stop offset="100%" stop-color="#0d1117" stop-opacity="0"/>
    </radialGradient>
  </defs>
  <rect width="800" height="800" fill="#0d1117"/>
  <rect width="800" height="800" fill="url(#glow-phil)"/>

  <!-- Title -->
  <text x="400" y="64" font-family="ui-monospace, monospace" font-size="12" font-weight="700" fill="#8b5cf6" text-anchor="middle" letter-spacing="4">PHILOSOPHICAL DEEP LEARNING</text>
  <text x="400" y="86" font-family="ui-monospace, monospace" font-size="10" fill="#4b5563" text-anchor="middle" letter-spacing="3">NYU  ·  CONSCIOUSNESS  ·  YANN LECUN</text>

  <!-- Neural network (left half) -->
  <!-- Input layer -->
  <g fill="#160d2a" stroke="#8b5cf6" stroke-width="1.5">
    <circle cx="120" cy="260" r="14"/>
    <circle cx="120" cy="300" r="14"/>
    <circle cx="120" cy="340" r="14"/>
    <circle cx="120" cy="380" r="14"/>
    <circle cx="120" cy="420" r="14"/>
  </g>
  <!-- Hidden 1 -->
  <g fill="#160d2a" stroke="#8b5cf6" stroke-width="1.5">
    <circle cx="220" cy="240" r="14"/>
    <circle cx="220" cy="280" r="14"/>
    <circle cx="220" cy="320" r="14"/>
    <circle cx="220" cy="360" r="14"/>
    <circle cx="220" cy="400" r="14"/>
    <circle cx="220" cy="440" r="14"/>
  </g>
  <!-- Hidden 2 -->
  <g fill="#160d2a" stroke="#8b5cf6" stroke-width="1.5">
    <circle cx="320" cy="260" r="14"/>
    <circle cx="320" cy="300" r="14"/>
    <circle cx="320" cy="340" r="14"/>
    <circle cx="320" cy="380" r="14"/>
    <circle cx="320" cy="420" r="14"/>
  </g>
  <!-- Output -->
  <g fill="#8b5cf6" opacity="0.7">
    <circle cx="420" cy="310" r="14"/>
    <circle cx="420" cy="370" r="14"/>
  </g>

  <!-- NN connections (dim) -->
  <g stroke="#8b5cf6" stroke-width="0.6" opacity="0.18" fill="none">
    <line x1="134" y1="260" x2="206" y2="240"/>
    <line x1="134" y1="260" x2="206" y2="280"/>
    <line x1="134" y1="260" x2="206" y2="320"/>
    <line x1="134" y1="300" x2="206" y2="240"/>
    <line x1="134" y1="300" x2="206" y2="280"/>
    <line x1="134" y1="300" x2="206" y2="320"/>
    <line x1="134" y1="300" x2="206" y2="360"/>
    <line x1="134" y1="340" x2="206" y2="280"/>
    <line x1="134" y1="340" x2="206" y2="320"/>
    <line x1="134" y1="340" x2="206" y2="360"/>
    <line x1="134" y1="340" x2="206" y2="400"/>
    <line x1="134" y1="380" x2="206" y2="320"/>
    <line x1="134" y1="380" x2="206" y2="360"/>
    <line x1="134" y1="380" x2="206" y2="400"/>
    <line x1="134" y1="380" x2="206" y2="440"/>
    <line x1="134" y1="420" x2="206" y2="360"/>
    <line x1="134" y1="420" x2="206" y2="400"/>
    <line x1="134" y1="420" x2="206" y2="440"/>
    <line x1="234" y1="240" x2="306" y2="260"/>
    <line x1="234" y1="240" x2="306" y2="300"/>
    <line x1="234" y1="280" x2="306" y2="260"/>
    <line x1="234" y1="280" x2="306" y2="300"/>
    <line x1="234" y1="280" x2="306" y2="340"/>
    <line x1="234" y1="320" x2="306" y2="300"/>
    <line x1="234" y1="320" x2="306" y2="340"/>
    <line x1="234" y1="320" x2="306" y2="380"/>
    <line x1="234" y1="360" x2="306" y2="340"/>
    <line x1="234" y1="360" x2="306" y2="380"/>
    <line x1="234" y1="360" x2="306" y2="420"/>
    <line x1="234" y1="400" x2="306" y2="380"/>
    <line x1="234" y1="400" x2="306" y2="420"/>
    <line x1="234" y1="440" x2="306" y2="420"/>
    <line x1="334" y1="260" x2="406" y2="310"/>
    <line x1="334" y1="300" x2="406" y2="310"/>
    <line x1="334" y1="300" x2="406" y2="370"/>
    <line x1="334" y1="340" x2="406" y2="310"/>
    <line x1="334" y1="340" x2="406" y2="370"/>
    <line x1="334" y1="380" x2="406" y2="370"/>
    <line x1="334" y1="420" x2="406" y2="370"/>
  </g>

  <!-- Thought bubble / question mark overlaid on network -->
  <!-- Bubble outline (right half of image) -->
  <ellipse cx="590" cy="340" rx="130" ry="100" fill="#100820" stroke="#8b5cf6" stroke-width="1.5" opacity="0.85"/>
  <!-- Bubble tail -->
  <circle cx="490" cy="420" r="14" fill="#100820" stroke="#8b5cf6" stroke-width="1.5" opacity="0.8"/>
  <circle cx="468" cy="442" r="8" fill="#100820" stroke="#8b5cf6" stroke-width="1.5" opacity="0.7"/>
  <circle cx="454" cy="458" r="5" fill="#100820" stroke="#8b5cf6" stroke-width="1.5" opacity="0.6"/>

  <!-- Question marks inside bubble -->
  <text x="540" y="360" font-family="ui-monospace, monospace" font-size="48" font-weight="700" fill="#8b5cf6" opacity="0.9">?</text>
  <text x="606" y="340" font-family="ui-monospace, monospace" font-size="30" font-weight="700" fill="#7c3aed" opacity="0.7">?</text>
  <text x="558" y="310" font-family="ui-monospace, monospace" font-size="20" font-weight="700" fill="#6d28d9" opacity="0.6">?</text>

  <!-- Philosophical questions inside bubble -->
  <text x="590" y="280" font-family="ui-monospace, monospace" font-size="9" fill="#a78bfa" text-anchor="middle">conscious?</text>
  <text x="620" y="408" font-family="ui-monospace, monospace" font-size="9" fill="#a78bfa" text-anchor="middle">sentient?</text>

  <!-- Philosophers / labels -->
  <text x="590" y="486" font-family="ui-monospace, monospace" font-size="9" fill="#4b5563" text-anchor="middle">Chalmers · Dennett · Tononi</text>

  <!-- Hard problem label -->
  <rect x="490" y="500" width="200" height="26" rx="5" fill="#160d2a" stroke="#8b5cf6" stroke-width="1"/>
  <text x="590" y="518" font-family="ui-monospace, monospace" font-size="9" fill="#8b5cf6" text-anchor="middle">hard problem of consciousness</text>

  <!-- Bottom panels -->
  <line x1="60" y1="558" x2="740" y2="558" stroke="#8b5cf6" stroke-width="0.75" opacity="0.3"/>

  <rect x="80" y="574" width="180" height="76" rx="6" fill="#100820" stroke="#8b5cf6" stroke-width="1.5"/>
  <text x="170" y="598" font-family="ui-monospace, monospace" font-size="9" fill="#4b5563" text-anchor="middle" letter-spacing="2">SPEAKER</text>
  <text x="170" y="622" font-family="ui-monospace, monospace" font-size="12" font-weight="700" fill="#8b5cf6" text-anchor="middle">Yann LeCun</text>
  <text x="170" y="640" font-family="ui-monospace, monospace" font-size="9" fill="#4b5563" text-anchor="middle">Meta AI · NYU</text>

  <rect x="310" y="574" width="180" height="76" rx="6" fill="#100820" stroke="#8b5cf6" stroke-width="1.5"/>
  <text x="400" y="598" font-family="ui-monospace, monospace" font-size="9" fill="#4b5563" text-anchor="middle" letter-spacing="2">VENUE</text>
  <text x="400" y="622" font-family="ui-monospace, monospace" font-size="12" font-weight="700" fill="#8b5cf6" text-anchor="middle">NYU Center</text>
  <text x="400" y="640" font-family="ui-monospace, monospace" font-size="9" fill="#4b5563" text-anchor="middle">Data Science</text>

  <rect x="540" y="574" width="180" height="76" rx="6" fill="#100820" stroke="#8b5cf6" stroke-width="1.5"/>
  <text x="630" y="598" font-family="ui-monospace, monospace" font-size="9" fill="#4b5563" text-anchor="middle" letter-spacing="2">TOPIC</text>
  <text x="630" y="622" font-family="ui-monospace, monospace" font-size="12" font-weight="700" fill="#8b5cf6" text-anchor="middle">Consciousness</text>
  <text x="630" y="640" font-family="ui-monospace, monospace" font-size="9" fill="#4b5563" text-anchor="middle">in deep learning</text>

  <!-- Philosophical terms row -->
  <g font-family="ui-monospace, monospace" font-size="9" text-anchor="middle">
    <rect x="80" y="666" width="106" height="24" rx="4" fill="#0f172a" stroke="#8b5cf6" stroke-width="1"/>
    <text x="133" y="683" fill="#94a3b8">qualia</text>
    <rect x="200" y="666" width="106" height="24" rx="4" fill="#0f172a" stroke="#8b5cf6" stroke-width="1"/>
    <text x="253" y="683" fill="#94a3b8">emergence</text>
    <rect x="320" y="666" width="106" height="24" rx="4" fill="#0f172a" stroke="#8b5cf6" stroke-width="1"/>
    <text x="373" y="683" fill="#94a3b8">IIT</text>
    <rect x="440" y="666" width="106" height="24" rx="4" fill="#0f172a" stroke="#8b5cf6" stroke-width="1"/>
    <text x="493" y="683" fill="#94a3b8">GWT</text>
    <rect x="560" y="666" width="160" height="24" rx="4" fill="#0f172a" stroke="#8b5cf6" stroke-width="1"/>
    <text x="640" y="683" fill="#94a3b8">functionalism</text>
  </g>

  <text x="400" y="726" font-family="ui-monospace, monospace" font-size="11" fill="#94a3b8" text-anchor="middle" letter-spacing="2">where computation meets philosophy</text>
  <text x="400" y="746" font-family="ui-monospace, monospace" font-size="9" fill="#4b5563" text-anchor="middle">David Chalmers · hard problem · machine cognition</text>
</svg>
