<svg width="800" height="800" viewBox="0 0 800 800" xmlns="http://www.w3.org/2000/svg">
  <defs>
    <radialGradient id="glow-reflections" cx="50%" cy="55%" r="46%">
      <stop offset="0%" stop-color="#1e3a5f" stop-opacity="0.6"/>
      <stop offset="100%" stop-color="#0d1117" stop-opacity="0"/>
    </radialGradient>
  </defs>
  <rect width="800" height="800" fill="#0d1117"/>
  <rect width="800" height="800" fill="url(#glow-reflections)"/>

  <!-- Title -->
  <text x="400" y="64" font-family="ui-monospace, monospace" font-size="13" font-weight="700" fill="#3b82f6" text-anchor="middle" letter-spacing="4">REFLECTIONS 2022</text>
  <text x="400" y="86" font-family="ui-monospace, monospace" font-size="10" fill="#4b5563" text-anchor="middle" letter-spacing="3">PERSONAL GROWTH  ·  NLP JOURNEY</text>

  <!-- Chart area -->
  <!-- Y axis -->
  <line x1="100" y1="140" x2="100" y2="520" stroke="#475569" stroke-width="1" opacity="0.6"/>
  <!-- X axis -->
  <line x1="100" y1="520" x2="740" y2="520" stroke="#475569" stroke-width="1" opacity="0.6"/>

  <!-- Grid lines (horizontal) -->
  <g stroke="#1e293b" stroke-width="1" stroke-dasharray="4 4" opacity="0.5">
    <line x1="100" y1="424" x2="740" y2="424"/>
    <line x1="100" y1="328" x2="740" y2="328"/>
    <line x1="100" y1="232" x2="740" y2="232"/>
    <line x1="100" y1="136" x2="740" y2="136"/>
  </g>

  <!-- Y axis labels -->
  <g font-family="ui-monospace, monospace" font-size="9" fill="#475569" text-anchor="end">
    <text x="92" y="524">0</text>
    <text x="92" y="428">25</text>
    <text x="92" y="332">50</text>
    <text x="92" y="236">75</text>
    <text x="92" y="140">100</text>
  </g>
  <text x="60" y="335" font-family="ui-monospace, monospace" font-size="9" fill="#475569" text-anchor="middle" transform="rotate(-90 60 335)">growth index</text>

  <!-- X axis labels (months) -->
  <g font-family="ui-monospace, monospace" font-size="9" fill="#475569" text-anchor="middle">
    <text x="154" y="538">Jan</text>
    <text x="208" y="538">Feb</text>
    <text x="262" y="538">Mar</text>
    <text x="316" y="538">Apr</text>
    <text x="370" y="538">May</text>
    <text x="424" y="538">Jun</text>
    <text x="478" y="538">Jul</text>
    <text x="532" y="538">Aug</text>
    <text x="586" y="538">Sep</text>
    <text x="640" y="538">Oct</text>
    <text x="694" y="538">Nov</text>
    <text x="748" y="538">Dec</text>
  </g>
  <text x="740" y="556" font-family="ui-monospace, monospace" font-size="9" fill="#475569">2022</text>

  <!-- Growth line data points (upward trend with bumps) -->
  <!-- Points: (x, y) where y decreases as growth increases (SVG y-axis) -->
  <!-- Jan=490, Feb=475, Mar=455, Apr=440, May=415, Jun=395, Jul=370, Aug=345, Sep=315, Oct=285, Nov=250, Dec=210 -->
  <path d="M154,490 L208,475 L262,455 L316,440 L370,415 L424,395 L478,370 L532,345 L586,315 L640,285 L694,250 L748,210"
        fill="none" stroke="#3b82f6" stroke-width="2.5"/>

  <!-- Area under curve -->
  <path d="M154,490 L208,475 L262,455 L316,440 L370,415 L424,395 L478,370 L532,345 L586,315 L640,285 L694,250 L748,210 L748,520 L154,520 Z"
        fill="#1d4ed8" opacity="0.12"/>

  <!-- Data point circles -->
  <g fill="#3b82f6" stroke="#0d1117" stroke-width="1.5">
    <circle cx="154" cy="490" r="5"/>
    <circle cx="208" cy="475" r="5"/>
    <circle cx="262" cy="455" r="5"/>
    <circle cx="316" cy="440" r="5"/>
    <circle cx="370" cy="415" r="5"/>
    <circle cx="424" cy="395" r="5"/>
    <circle cx="478" cy="370" r="5"/>
    <circle cx="532" cy="345" r="5"/>
    <circle cx="586" cy="315" r="5"/>
    <circle cx="640" cy="285" r="5"/>
    <circle cx="694" cy="250" r="5"/>
    <circle cx="748" cy="210" r="7" stroke="#60a5fa" stroke-width="2"/>
  </g>

  <!-- Milestone annotations -->
  <!-- Alps trip annotation -->
  <line x1="424" y1="395" x2="424" y2="350" stroke="#60a5fa" stroke-width="1" stroke-dasharray="3 3" opacity="0.7"/>
  <rect x="374" y="320" width="100" height="28" rx="4" fill="#0c1a30" stroke="#3b82f6" stroke-width="1"/>
  <text x="424" y="337" font-family="ui-monospace, monospace" font-size="8" fill="#60a5fa" text-anchor="middle">Alps trip</text>
  <text x="424" y="347" font-family="ui-monospace, monospace" font-size="7" fill="#4b5563" text-anchor="middle">Jun 2022</text>

  <!-- NLP milestone -->
  <line x1="586" y1="315" x2="586" y2="270" stroke="#60a5fa" stroke-width="1" stroke-dasharray="3 3" opacity="0.7"/>
  <rect x="536" y="240" width="100" height="28" rx="4" fill="#0c1a30" stroke="#3b82f6" stroke-width="1"/>
  <text x="586" y="257" font-family="ui-monospace, monospace" font-size="8" fill="#60a5fa" text-anchor="middle">NLP research</text>
  <text x="586" y="267" font-family="ui-monospace, monospace" font-size="7" fill="#4b5563" text-anchor="middle">Sep 2022</text>

  <!-- End of year annotation -->
  <line x1="748" y1="210" x2="748" y2="165" stroke="#60a5fa" stroke-width="1" stroke-dasharray="3 3" opacity="0.7"/>
  <rect x="674" y="136" width="136" height="28" rx="4" fill="#0c1a30" stroke="#3b82f6" stroke-width="1.5"/>
  <text x="742" y="153" font-family="ui-monospace, monospace" font-size="8" fill="#60a5fa" text-anchor="middle">year high</text>
  <text x="742" y="163" font-family="ui-monospace, monospace" font-size="7" fill="#4b5563" text-anchor="middle">Dec 2022</text>

  <!-- Trend line (dotted projection) -->
  <line x1="100" y1="520" x2="748" y2="170" stroke="#1d4ed8" stroke-width="1" stroke-dasharray="6 5" opacity="0.4"/>
  <text x="680" y="166" font-family="ui-monospace, monospace" font-size="8" fill="#1d4ed8" opacity="0.7">trend</text>

  <!-- Stats row -->
  <line x1="60" y1="570" x2="740" y2="570" stroke="#3b82f6" stroke-width="0.75" opacity="0.3"/>

  <rect x="80" y="586" width="180" height="76" rx="6" fill="#050e1a" stroke="#3b82f6" stroke-width="1.5"/>
  <text x="170" y="610" font-family="ui-monospace, monospace" font-size="9" fill="#4b5563" text-anchor="middle" letter-spacing="2">YEAR</text>
  <text x="170" y="640" font-family="ui-monospace, monospace" font-size="32" font-weight="700" fill="#3b82f6" text-anchor="middle">2022</text>
  <text x="170" y="656" font-family="ui-monospace, monospace" font-size="8" fill="#4b5563" text-anchor="middle">in review</text>

  <rect x="310" y="586" width="180" height="76" rx="6" fill="#050e1a" stroke="#3b82f6" stroke-width="1.5"/>
  <text x="400" y="610" font-family="ui-monospace, monospace" font-size="9" fill="#4b5563" text-anchor="middle" letter-spacing="2">GROWTH</text>
  <text x="400" y="640" font-family="ui-monospace, monospace" font-size="32" font-weight="700" fill="#60a5fa" text-anchor="middle">+57%</text>
  <text x="400" y="656" font-family="ui-monospace, monospace" font-size="8" fill="#4b5563" text-anchor="middle">Jan → Dec</text>

  <rect x="540" y="586" width="180" height="76" rx="6" fill="#050e1a" stroke="#3b82f6" stroke-width="1.5"/>
  <text x="630" y="610" font-family="ui-monospace, monospace" font-size="9" fill="#4b5563" text-anchor="middle" letter-spacing="2">HIGHLIGHTS</text>
  <text x="630" y="630" font-family="ui-monospace, monospace" font-size="10" fill="#3b82f6" text-anchor="middle">Alps · NLP</text>
  <text x="630" y="648" font-family="ui-monospace, monospace" font-size="10" fill="#3b82f6" text-anchor="middle">research · blog</text>
  <text x="630" y="660" font-family="ui-monospace, monospace" font-size="8" fill="#4b5563" text-anchor="middle"> </text>

  <text x="400" y="700" font-family="ui-monospace, monospace" font-size="11" fill="#94a3b8" text-anchor="middle" letter-spacing="2">personal growth timeline</text>
  <text x="400" y="720" font-family="ui-monospace, monospace" font-size="9" fill="#4b5563" text-anchor="middle">machine learning · information theory · Alps</text>
</svg>
